<svg xmlns="http://www.w3.org/2000/svg" viewBox="0 0 1600 1000" role="img" aria-label="Luxury boutique hero poster">
  <defs>
    <linearGradient id="g" x1="0" x2="1" y1="0" y2="1"><stop stop-color="#171313"/><stop offset=".45" stop-color="#3c1735"/><stop offset="1" stop-color="#7b2f3d"/></linearGradient>
    <radialGradient id="r" cx=".75" cy=".25" r=".7"><stop stop-color="#d7b56d" stop-opacity=".65"/><stop offset="1" stop-color="#d7b56d" stop-opacity="0"/></radialGradient>
  </defs>
  <rect width="1600" height="1000" fill="url(#g)"/>
  <rect width="1600" height="1000" fill="url(#r)"/>
  <path d="M990 100c-210 120-285 330-215 630 34 145 176 199 316 137 117-51 170-180 136-316-40-161-6-314 101-460-118-18-229-15-338 9Z" fill="#f6efe4" opacity=".22"/>
  <path d="M1083 102c-78 197-54 349 71 456 89 76 110 180 53 312 177-46 268-158 273-336 4-158-112-324-397-432Z" fill="#d7b56d" opacity=".25"/>
</svg>
