<svg xmlns="http://www.w3.org/2000/svg" viewBox="0 0 900 1200"><defs><linearGradient id="b" x1="0" x2="1" y1="0" y2="1"><stop stop-color="#ead1bd"/><stop offset="1" stop-color="#fff7ee"/></linearGradient><pattern id="p" width="54" height="54" patternUnits="userSpaceOnUse"><path d="M27 7c18 20 18 20 0 40C9 27 9 27 27 7Z" fill="#d8899b" opacity=".45"/><circle cx="27" cy="27" r="4" fill="#7b2f3d"/></pattern></defs><rect width="900" height="1200" fill="url(#b)"/><circle cx="690" cy="170" r="260" fill="#d7b56d" opacity=".28"/><path d="M450 96c46 0 84 38 84 84s-38 84-84 84-84-38-84-84 38-84 84-84Z" fill="#332522"/><path d="M306 260h288l78 150-92 58v548H320V468l-92-58 78-150Z" fill="#dfe4e1"/><path d="M320 285h260v710H320z" fill="url(#p)" opacity=".8"/><path d="M450 274v742M356 384h188M342 890h216" stroke="#7b2f3d" stroke-width="12" opacity=".75"/><path d="M260 1024h380" stroke="#171313" stroke-width="24" opacity=".13"/></svg>
